<?xml version="1.0" encoding="UTF-8" standalone="no"?>
<!DOCTYPE svg PUBLIC "-//W3C//DTD SVG 1.1//EN"
 "http://www.w3.org/Graphics/SVG/1.1/DTD/svg11.dtd">
<!-- Generated by graphviz version 2.40.1 (20161225.0304)
 -->
<!-- Title: dependencies Pages: 1 -->
<svg width="1470pt" height="284pt"
 viewBox="0.00 0.00 1470.00 284.00" xmlns="http://www.w3.org/2000/svg" xmlns:xlink="http://www.w3.org/1999/xlink">
<g id="graph0" class="graph" transform="scale(1 1) rotate(0) translate(4 280)">
<title>dependencies</title>
<polygon fill="#ffffff" stroke="transparent" points="-4,4 -4,-280 1466,-280 1466,4 -4,4"/>
<text text-anchor="start" x="710.0091" y="-42.4" font-family="sans-serif" font-weight="bold" font-size="14.00" fill="#000000">Legend</text>
<polygon fill="#ffffb3" stroke="transparent" points="497,-10 497,-30 517,-30 517,-10 497,-10"/>
<text text-anchor="start" x="520.629" y="-15.4" font-family="sans-serif" font-size="14.00" fill="#000000"> &#160;Declarations</text>
<polygon fill="#8dd3c7" stroke="transparent" points="610,-10 610,-30 630,-30 630,-10 610,-10"/>
<text text-anchor="start" x="633.7251" y="-15.4" font-family="sans-serif" font-size="14.00" fill="#000000"> &#160;Module</text>
<polygon fill="#80b1d3" stroke="transparent" points="696,-10 696,-30 716,-30 716,-10 696,-10"/>
<text text-anchor="start" x="719.7812" y="-15.4" font-family="sans-serif" font-size="14.00" fill="#000000"> &#160;Bootstrap</text>
<polygon fill="#fdb462" stroke="transparent" points="793,-10 793,-30 813,-30 813,-10 793,-10"/>
<text text-anchor="start" x="816.6732" y="-15.4" font-family="sans-serif" font-size="14.00" fill="#000000"> &#160;Providers</text>
<polygon fill="#fb8072" stroke="transparent" points="889,-10 889,-30 909,-30 909,-10 889,-10"/>
<text text-anchor="start" x="912.7258" y="-15.4" font-family="sans-serif" font-size="14.00" fill="#000000"> &#160;Exports</text>
<g id="clust1" class="cluster">
<title>cluster_AppModule</title>
<polygon fill="none" stroke="#000000" stroke-dasharray="1,5" points="8,-70 8,-268 1454,-268 1454,-70 8,-70"/>
</g>
<g id="clust2" class="cluster">
<title>cluster_AppModule_declarations</title>
<polygon fill="none" stroke="#000000" points="168,-78 168,-130 1446,-130 1446,-78 168,-78"/>
</g>
<g id="clust11" class="cluster">
<title>cluster_AppModule_imports</title>
<polygon fill="none" stroke="#000000" points="16,-78 16,-130 160,-130 160,-78 16,-78"/>
</g>
<g id="clust13" class="cluster">
<title>cluster_AppModule_bootstrap</title>
<polygon fill="none" stroke="#000000" points="665,-208 665,-260 789,-260 789,-208 665,-208"/>
</g>
<!-- AppComponent -->
<g id="node1" class="node">
<title>AppComponent</title>
<polygon fill="#ffffb3" stroke="#000000" points="1437.9399,-122 1332.0601,-122 1332.0601,-86 1437.9399,-86 1437.9399,-122"/>
<text text-anchor="middle" x="1385" y="-99.8" font-family="Times,serif" font-size="14.00" fill="#000000">AppComponent</text>
</g>
<!-- AppModule -->
<g id="node9" class="node">
<title>AppModule</title>
<polygon fill="#8dd3c7" stroke="#000000" points="768.6571,-187 765.6571,-191 744.6571,-191 741.6571,-187 685.3429,-187 685.3429,-151 768.6571,-151 768.6571,-187"/>
<text text-anchor="middle" x="727" y="-164.8" font-family="Times,serif" font-size="14.00" fill="#000000">AppModule</text>
</g>
<!-- AppComponent&#45;&gt;AppModule -->
<g id="edge1" class="edge">
<title>AppComponent&#45;&gt;AppModule</title>
<path fill="none" stroke="#000000" d="M1385,-122.0109C1385,-144.4852 1385,-180 1385,-180 1385,-180 778.66,-180 778.66,-180"/>
<polygon fill="#000000" stroke="#000000" points="778.6601,-176.5001 768.66,-180 778.66,-183.5001 778.6601,-176.5001"/>
</g>
<!-- LoginComponent -->
<g id="node2" class="node">
<title>LoginComponent</title>
<polygon fill="#ffffb3" stroke="#000000" points="1314.2758,-122 1199.7242,-122 1199.7242,-86 1314.2758,-86 1314.2758,-122"/>
<text text-anchor="middle" x="1257" y="-99.8" font-family="Times,serif" font-size="14.00" fill="#000000">LoginComponent</text>
</g>
<!-- LoginComponent&#45;&gt;AppModule -->
<g id="edge2" class="edge">
<title>LoginComponent&#45;&gt;AppModule</title>
<path fill="none" stroke="#000000" d="M1257,-122.1289C1257,-142.5724 1257,-173 1257,-173 1257,-173 779.0312,-173 779.0312,-173"/>
<polygon fill="#000000" stroke="#000000" points="779.0313,-169.5001 769.0312,-173 779.0312,-176.5001 779.0313,-169.5001"/>
</g>
<!-- ManagerLoginComponent -->
<g id="node3" class="node">
<title>ManagerLoginComponent</title>
<polygon fill="#ffffb3" stroke="#000000" points="1181.0253,-122 1016.9747,-122 1016.9747,-86 1181.0253,-86 1181.0253,-122"/>
<text text-anchor="middle" x="1099" y="-99.8" font-family="Times,serif" font-size="14.00" fill="#000000">ManagerLoginComponent</text>
</g>
<!-- ManagerLoginComponent&#45;&gt;AppModule -->
<g id="edge3" class="edge">
<title>ManagerLoginComponent&#45;&gt;AppModule</title>
<path fill="none" stroke="#000000" d="M1099,-122.2667C1099,-140.5552 1099,-166 1099,-166 1099,-166 778.95,-166 778.95,-166"/>
<polygon fill="#000000" stroke="#000000" points="778.95,-162.5001 768.95,-166 778.95,-169.5001 778.95,-162.5001"/>
</g>
<!-- ManagerPortalComponent -->
<g id="node4" class="node">
<title>ManagerPortalComponent</title>
<polygon fill="#ffffb3" stroke="#000000" points="998.0211,-122 833.9789,-122 833.9789,-86 998.0211,-86 998.0211,-122"/>
<text text-anchor="middle" x="916" y="-99.8" font-family="Times,serif" font-size="14.00" fill="#000000">ManagerPortalComponent</text>
</g>
<!-- ManagerPortalComponent&#45;&gt;AppModule -->
<g id="edge4" class="edge">
<title>ManagerPortalComponent&#45;&gt;AppModule</title>
<path fill="none" stroke="#000000" d="M916,-122.0091C916,-138.0494 916,-159 916,-159 916,-159 778.9452,-159 778.9452,-159"/>
<polygon fill="#000000" stroke="#000000" points="778.9453,-155.5001 768.9452,-159 778.9452,-162.5001 778.9453,-155.5001"/>
</g>
<!-- ManagerRegisterComponent -->
<g id="node5" class="node">
<title>ManagerRegisterComponent</title>
<polygon fill="#ffffb3" stroke="#000000" points="815.7338,-122 638.2662,-122 638.2662,-86 815.7338,-86 815.7338,-122"/>
<text text-anchor="middle" x="727" y="-99.8" font-family="Times,serif" font-size="14.00" fill="#000000">ManagerRegisterComponent</text>
</g>
<!-- ManagerRegisterComponent&#45;&gt;AppModule -->
<g id="edge5" class="edge">
<title>ManagerRegisterComponent&#45;&gt;AppModule</title>
<path fill="none" stroke="#000000" d="M727,-122.1061C727,-122.1061 727,-140.991 727,-140.991"/>
<polygon fill="#000000" stroke="#000000" points="723.5001,-140.9909 727,-150.991 730.5001,-140.991 723.5001,-140.9909"/>
</g>
<!-- RegisterLoginComponent -->
<g id="node6" class="node">
<title>RegisterLoginComponent</title>
<polygon fill="#ffffb3" stroke="#000000" points="619.9284,-122 458.0716,-122 458.0716,-86 619.9284,-86 619.9284,-122"/>
<text text-anchor="middle" x="539" y="-99.8" font-family="Times,serif" font-size="14.00" fill="#000000">RegisterLoginComponent</text>
</g>
<!-- RegisterLoginComponent&#45;&gt;AppModule -->
<g id="edge6" class="edge">
<title>RegisterLoginComponent&#45;&gt;AppModule</title>
<path fill="none" stroke="#000000" d="M539,-122.0091C539,-138.0494 539,-159 539,-159 539,-159 675.2767,-159 675.2767,-159"/>
<polygon fill="#000000" stroke="#000000" points="675.2767,-162.5001 685.2767,-159 675.2767,-155.5001 675.2767,-162.5001"/>
</g>
<!-- TestComponent -->
<g id="node7" class="node">
<title>TestComponent</title>
<polygon fill="#ffffb3" stroke="#000000" points="440.9357,-122 335.0643,-122 335.0643,-86 440.9357,-86 440.9357,-122"/>
<text text-anchor="middle" x="388" y="-99.8" font-family="Times,serif" font-size="14.00" fill="#000000">TestComponent</text>
</g>
<!-- TestComponent&#45;&gt;AppModule -->
<g id="edge7" class="edge">
<title>TestComponent&#45;&gt;AppModule</title>
<path fill="none" stroke="#000000" d="M388,-122.2667C388,-140.5552 388,-166 388,-166 388,-166 675.0919,-166 675.0919,-166"/>
<polygon fill="#000000" stroke="#000000" points="675.092,-169.5001 685.0919,-166 675.0919,-162.5001 675.092,-169.5001"/>
</g>
<!-- UserPortalComponent -->
<g id="node8" class="node">
<title>UserPortalComponent</title>
<polygon fill="#ffffb3" stroke="#000000" points="317.6979,-122 176.3021,-122 176.3021,-86 317.6979,-86 317.6979,-122"/>
<text text-anchor="middle" x="247" y="-99.8" font-family="Times,serif" font-size="14.00" fill="#000000">UserPortalComponent</text>
</g>
<!-- UserPortalComponent&#45;&gt;AppModule -->
<g id="edge8" class="edge">
<title>UserPortalComponent&#45;&gt;AppModule</title>
<path fill="none" stroke="#000000" d="M247,-122.1289C247,-142.5724 247,-173 247,-173 247,-173 675.2428,-173 675.2428,-173"/>
<polygon fill="#000000" stroke="#000000" points="675.2429,-176.5001 685.2428,-173 675.2428,-169.5001 675.2429,-176.5001"/>
</g>
<!-- AppComponent  -->
<g id="node11" class="node">
<title>AppComponent </title>
<polygon fill="#80b1d3" stroke="#000000" points="781.439,-252 672.561,-252 672.561,-216 781.439,-216 781.439,-252"/>
<text text-anchor="middle" x="727" y="-229.8" font-family="Times,serif" font-size="14.00" fill="#000000">AppComponent </text>
</g>
<!-- AppModule&#45;&gt;AppComponent  -->
<g id="edge10" class="edge">
<title>AppModule&#45;&gt;AppComponent </title>
<path fill="none" stroke="#000000" stroke-dasharray="1,5" d="M727,-187.1061C727,-187.1061 727,-205.991 727,-205.991"/>
<polygon fill="#000000" stroke="#000000" points="723.5001,-205.9909 727,-215.991 730.5001,-205.991 723.5001,-205.9909"/>
</g>
<!-- AppRoutingModule -->
<g id="node10" class="node">
<title>AppRoutingModule</title>
<polygon fill="#8dd3c7" stroke="#000000" points="152.2744,-122 149.2744,-126 128.2744,-126 125.2744,-122 23.7256,-122 23.7256,-86 152.2744,-86 152.2744,-122"/>
<text text-anchor="middle" x="88" y="-99.8" font-family="Times,serif" font-size="14.00" fill="#000000">AppRoutingModule</text>
</g>
<!-- AppRoutingModule&#45;&gt;AppModule -->
<g id="edge9" class="edge">
<title>AppRoutingModule&#45;&gt;AppModule</title>
<path fill="none" stroke="#000000" d="M88,-122.0109C88,-144.4852 88,-180 88,-180 88,-180 675.0734,-180 675.0734,-180"/>
<polygon fill="#000000" stroke="#000000" points="675.0735,-183.5001 685.0734,-180 675.0734,-176.5001 675.0735,-183.5001"/>
</g>
</g>
</svg>
